<svg width="163" height="47" viewBox="0 0 163 47" fill="none" xmlns="http://www.w3.org/2000/svg">
<path d="M156.964 0.941471C159.759 0.941471 162.034 3.15488 162.034 5.875V41.125C162.034 43.8451 159.759 46.0585 156.964 46.0585H6.03826C3.24311 46.0585 0.968656 43.8451 0.968656 41.125V5.875C0.968656 3.15488 3.24311 0.941471 6.03826 0.941471H156.964ZM156.964 3.8147e-06H6.03826C2.7194 3.8147e-06 0.0012207 2.64522 0.0012207 5.875V41.125C0.0012207 44.3548 2.7194 47 6.03826 47H156.964C160.283 47 163.001 44.3548 163.001 41.125V5.875C163.001 2.64522 160.283 3.8147e-06 156.964 3.8147e-06Z" fill="white"/>
<path d="M36.378 23.2462C36.343 19.4592 39.5644 17.6168 39.7117 17.531C37.8873 14.9425 35.0595 14.5888 34.0658 14.5606C31.6909 14.3174 29.3871 15.9436 28.1773 15.9436C26.9433 15.9436 25.0803 14.5841 23.0724 14.6241C20.4885 14.6628 18.0713 16.1187 16.7456 18.3794C14.0096 22.9889 16.0501 29.7628 18.6714 33.4887C19.9826 35.3135 21.5148 37.3509 23.5203 37.2792C25.4824 37.2005 26.2153 36.0619 28.583 36.0619C30.929 36.0619 31.6172 37.2792 33.6626 37.2334C35.7683 37.2005 37.094 35.4004 38.3594 33.5592C39.8747 31.4677 40.4832 29.4079 40.5074 29.3022C40.4578 29.2857 36.4179 27.7852 36.378 23.2462Z" fill="white"/>
<path d="M32.5143 12.1096C33.5696 10.8253 34.2916 9.07807 34.0912 7.30499C32.5638 7.37079 30.6537 8.33312 29.5538 9.58919C28.5806 10.696 27.7112 12.5102 27.9358 14.2163C29.6516 14.3409 31.4132 13.3739 32.5143 12.1096Z" fill="white"/>
<path d="M59.2245 11.7606C59.2245 13.1436 58.7982 14.1846 57.947 14.8837C57.1586 15.5288 56.0381 15.8519 54.5868 15.8519C53.8672 15.8519 53.2514 15.8214 52.7358 15.7603V8.20387C53.4084 8.09812 54.1328 8.04407 54.9152 8.04407C56.2977 8.04407 57.3397 8.33664 58.0424 8.92179C58.8296 9.58332 59.2245 10.5292 59.2245 11.7606ZM57.8903 11.7947C57.8903 10.8981 57.6464 10.2108 57.1586 9.73137C56.6708 9.25314 55.9584 9.01344 55.0203 9.01344C54.6218 9.01344 54.2825 9.03929 54.0012 9.09334V14.8379C54.157 14.8614 54.4419 14.872 54.856 14.872C55.8244 14.872 56.5718 14.61 57.0982 14.0859C57.6246 13.5619 57.8903 12.7981 57.8903 11.7947Z" fill="white"/>
<path d="M66.2987 12.9685C66.2987 13.8203 66.0488 14.5183 65.5489 15.0658C65.0249 15.6287 64.3307 15.9095 63.4637 15.9095C62.6282 15.9095 61.9629 15.6404 61.4667 15.0999C60.9716 14.5606 60.7241 13.8803 60.7241 13.0601C60.7241 12.2024 60.9789 11.4985 61.4908 10.9522C62.0028 10.4058 62.691 10.132 63.5579 10.132C64.3934 10.132 65.0648 10.4011 65.5731 10.9404C66.056 11.4645 66.2987 12.1413 66.2987 12.9685ZM64.9863 13.0084C64.9863 12.4973 64.8728 12.059 64.647 11.6936C64.3814 11.2518 64.0034 11.0309 63.512 11.0309C63.0037 11.0309 62.6173 11.2518 62.3517 11.6936C62.1247 12.059 62.0124 12.5043 62.0124 13.0307C62.0124 13.5419 62.1259 13.9801 62.3517 14.3456C62.6258 14.7874 63.0073 15.0083 63.5 15.0083C63.9829 15.0083 64.362 14.7838 64.6349 14.3338C64.8692 13.9613 64.9863 13.5195 64.9863 13.0084Z" fill="white"/>
<path d="M75.7839 10.2448L74.003 15.7838H72.8439L72.1062 13.3785C71.919 12.7781 71.7669 12.1812 71.6486 11.589H71.6256C71.5158 12.1977 71.3636 12.7934 71.168 13.3785L70.3844 15.7838H69.212L67.5374 10.2448H68.8377L69.4813 12.878C69.637 13.5007 69.765 14.0941 69.8677 14.6558H69.8906C69.9848 14.1928 70.1405 13.603 70.3603 12.8897L71.168 10.246H72.1992L72.9731 12.8333C73.1602 13.4643 73.3124 14.0718 73.4295 14.6569H73.4645C73.5502 14.0871 73.6794 13.4796 73.8509 12.8333L74.5415 10.246H75.7839V10.2448Z" fill="white"/>
<path d="M82.344 15.7838H81.0786V12.6113C81.0786 11.6337 80.6971 11.1449 79.9316 11.1449C79.5561 11.1449 79.253 11.2789 79.0176 11.5479C78.7845 11.817 78.6662 12.1343 78.6662 12.4973V15.7826H77.4009V11.8276C77.4009 11.3411 77.3852 10.8136 77.355 10.2425H78.467L78.5262 11.1085H78.5612C78.7085 10.8394 78.9282 10.6173 79.2168 10.4399C79.5597 10.2331 79.9437 10.1285 80.3638 10.1285C80.8951 10.1285 81.337 10.2954 81.6884 10.6303C82.1254 11.0403 82.344 11.6525 82.344 12.4656V15.7838Z" fill="white"/>
<path d="M85.8332 15.7838H84.5691V7.70331H85.8332V15.7838Z" fill="white"/>
<path d="M93.2831 12.9685C93.2831 13.8203 93.0332 14.5183 92.5333 15.0658C92.0093 15.6287 91.3138 15.9095 90.4481 15.9095C89.6114 15.9095 88.9461 15.6404 88.451 15.0999C87.956 14.5606 87.7085 13.8803 87.7085 13.0601C87.7085 12.2024 87.9633 11.4985 88.4752 10.9522C88.9871 10.4058 89.6754 10.132 90.5411 10.132C91.3778 10.132 92.0479 10.4011 92.5574 10.9404C93.0404 11.4645 93.2831 12.1413 93.2831 12.9685ZM91.9694 13.0084C91.9694 12.4973 91.8559 12.059 91.6302 11.6936C91.3657 11.2518 90.9866 11.0309 90.4964 11.0309C89.9869 11.0309 89.6005 11.2518 89.3361 11.6936C89.1091 12.059 88.9968 12.5043 88.9968 13.0307C88.9968 13.5419 89.1103 13.9801 89.3361 14.3456C89.6102 14.7874 89.9917 15.0083 90.4843 15.0083C90.9673 15.0083 91.3452 14.7838 91.6181 14.3338C91.8535 13.9613 91.9694 13.5195 91.9694 13.0084Z" fill="white"/>
<path d="M99.407 15.7838H98.2709L98.1767 15.1457H98.1417C97.7529 15.6545 97.1987 15.9095 96.4791 15.9095C95.9418 15.9095 95.5071 15.7415 95.1799 15.4078C94.8829 15.1046 94.7344 14.7274 94.7344 14.2798C94.7344 13.603 95.0242 13.0871 95.6073 12.7299C96.1893 12.3727 97.0079 12.1977 98.062 12.2059V12.1025C98.062 11.3728 97.6684 11.0086 96.8799 11.0086C96.3185 11.0086 95.8235 11.146 95.396 11.4186L95.1389 10.6102C95.6677 10.2918 96.3209 10.132 97.0912 10.132C98.5788 10.132 99.3249 10.8958 99.3249 12.4233V14.4631C99.3249 15.0165 99.3527 15.4571 99.407 15.7838ZM98.0934 13.8803V13.026C96.6976 13.0025 95.9997 13.375 95.9997 14.1423C95.9997 14.4313 96.0794 14.6475 96.2424 14.7921C96.4054 14.9366 96.6131 15.0083 96.8606 15.0083C97.1383 15.0083 97.3979 14.9225 97.6346 14.7521C97.8724 14.5806 98.0185 14.3632 98.0728 14.0965C98.0861 14.0365 98.0934 13.9637 98.0934 13.8803Z" fill="white"/>
<path d="M106.597 15.7838H105.474L105.415 14.8943H105.38C105.021 15.5711 104.411 15.9095 103.552 15.9095C102.866 15.9095 102.295 15.6475 101.842 15.1234C101.39 14.5994 101.164 13.9191 101.164 13.0836C101.164 12.1871 101.409 11.461 101.902 10.9064C102.378 10.3894 102.963 10.1309 103.658 10.1309C104.423 10.1309 104.957 10.3811 105.262 10.8829H105.286V7.70331H106.552V14.2915C106.552 14.8309 106.567 15.3279 106.597 15.7838ZM105.286 13.4479V12.5243C105.286 12.3645 105.274 12.2353 105.251 12.1366C105.18 11.8405 105.026 11.5914 104.793 11.3905C104.558 11.1895 104.274 11.0885 103.947 11.0885C103.475 11.0885 103.105 11.2706 102.834 11.636C102.564 12.0015 102.428 12.4679 102.428 13.0378C102.428 13.5854 102.557 14.0295 102.817 14.3714C103.091 14.7357 103.46 14.9178 103.923 14.9178C104.338 14.9178 104.67 14.7662 104.922 14.4619C105.166 14.1811 105.286 13.8427 105.286 13.4479Z" fill="white"/>
<path d="M117.419 12.9685C117.419 13.8203 117.169 14.5183 116.669 15.0658C116.145 15.6287 115.452 15.9095 114.584 15.9095C113.75 15.9095 113.084 15.6404 112.587 15.0999C112.092 14.5606 111.844 13.8803 111.844 13.0601C111.844 12.2024 112.099 11.4985 112.611 10.9522C113.123 10.4058 113.811 10.132 114.679 10.132C115.514 10.132 116.186 10.4011 116.693 10.9404C117.176 11.4645 117.419 12.1413 117.419 12.9685ZM116.108 13.0084C116.108 12.4973 115.994 12.059 115.769 11.6936C115.502 11.2518 115.125 11.0309 114.632 11.0309C114.125 11.0309 113.739 11.2518 113.472 11.6936C113.245 12.059 113.133 12.5043 113.133 13.0307C113.133 13.5419 113.246 13.9801 113.472 14.3456C113.746 14.7874 114.128 15.0083 114.62 15.0083C115.103 15.0083 115.484 14.7838 115.756 14.3338C115.99 13.9613 116.108 13.5195 116.108 13.0084Z" fill="white"/>
<path d="M124.223 15.7838H122.959V12.6113C122.959 11.6337 122.577 11.1449 121.811 11.1449C121.435 11.1449 121.132 11.2789 120.898 11.5479C120.663 11.817 120.546 12.1343 120.546 12.4973V15.7826H119.28V11.8276C119.28 11.3411 119.265 10.8136 119.235 10.2425H120.346L120.405 11.1085H120.44C120.589 10.8394 120.808 10.6173 121.096 10.4399C121.44 10.2331 121.823 10.1285 122.244 10.1285C122.774 10.1285 123.216 10.2954 123.567 10.6303C124.006 11.0403 124.223 11.6525 124.223 12.4656V15.7838Z" fill="white"/>
<path d="M132.739 11.1672H131.345V13.858C131.345 14.5418 131.593 14.8838 132.083 14.8838C132.31 14.8838 132.498 14.865 132.647 14.8262L132.68 15.7603C132.43 15.852 132.101 15.8978 131.697 15.8978C131.197 15.8978 130.808 15.7497 130.527 15.4536C130.244 15.1575 130.104 14.6593 130.104 13.9602V11.1672H129.272V10.2449H130.104V9.22967L131.344 8.86542V10.2437H132.737V11.1672H132.739Z" fill="white"/>
<path d="M139.437 15.7838H138.171V12.6348C138.171 11.6419 137.789 11.1449 137.025 11.1449C136.438 11.1449 136.037 11.4328 135.817 12.0085C135.78 12.1295 135.758 12.2776 135.758 12.4515V15.7826H134.494V7.70331H135.758V11.0415H135.782C136.181 10.434 136.752 10.1309 137.492 10.1309C138.016 10.1309 138.45 10.2977 138.794 10.6326C139.222 11.0497 139.437 11.6701 139.437 12.4903V15.7838Z" fill="white"/>
<path d="M146.347 12.7523C146.347 12.9732 146.33 13.1588 146.3 13.3104H142.505C142.522 13.858 142.703 14.2751 143.055 14.5641C143.376 14.8226 143.79 14.9519 144.297 14.9519C144.859 14.9519 145.371 14.8649 145.832 14.6899L146.03 15.5453C145.49 15.7732 144.855 15.8872 144.12 15.8872C143.238 15.8872 142.544 15.6346 142.042 15.1293C141.537 14.6241 141.287 13.9461 141.287 13.0954C141.287 12.26 141.52 11.5644 141.99 11.0098C142.48 10.4176 143.143 10.1215 143.98 10.1215C144.798 10.1215 145.42 10.4176 145.84 11.0098C146.18 11.4798 146.347 12.0614 146.347 12.7523ZM145.14 12.4339C145.15 12.0684 145.066 11.7535 144.895 11.488C144.675 11.1461 144.341 10.9745 143.888 10.9745C143.475 10.9745 143.138 11.1414 142.881 11.4762C142.671 11.743 142.546 12.0614 142.505 12.4339H145.14Z" fill="white"/>
<path d="M64.7725 37.0172H62.0305L60.5285 32.4241H55.3076L53.8769 37.0172H51.2073L56.3798 21.3803H59.5746L64.7725 37.0172ZM60.0757 30.4971L58.7173 26.414C58.5737 25.9969 58.3044 25.0146 57.9072 23.4683H57.8589C57.7007 24.1333 57.4459 25.1156 57.0958 26.414L55.7616 30.4971H60.0757Z" fill="white"/>
<path d="M78.0744 31.2409C78.0744 33.1585 77.5419 34.6743 76.477 35.787C75.5231 36.7775 74.3387 37.2722 72.9248 37.2722C71.3986 37.2722 70.3023 36.7387 69.6346 35.6718H69.5863V41.6115H67.0121V29.4537C67.0121 28.2482 66.9795 27.0109 66.9167 25.7419H69.1806L69.3243 27.5291H69.3726C70.2311 26.1825 71.5339 25.5104 73.2822 25.5104C74.649 25.5104 75.79 26.0357 76.7028 27.0873C77.618 28.1401 78.0744 29.5242 78.0744 31.2409ZM75.4519 31.3326C75.4519 30.2351 75.1984 29.3304 74.6888 28.6183C74.1322 27.8757 73.3848 27.5044 72.4479 27.5044C71.8128 27.5044 71.2356 27.7112 70.7201 28.1189C70.2033 28.5302 69.8652 29.0672 69.7071 29.7322C69.6274 30.0424 69.5875 30.2962 69.5875 30.496V32.376C69.5875 33.1961 69.8459 33.8882 70.3627 34.4534C70.8795 35.0185 71.5508 35.3005 72.3766 35.3005C73.3462 35.3005 74.1008 34.9363 74.6405 34.2101C75.1815 33.4828 75.4519 32.524 75.4519 31.3326Z" fill="white"/>
<path d="M91.4006 31.2409C91.4006 33.1585 90.8681 34.6743 89.802 35.787C88.8493 36.7775 87.6649 37.2722 86.251 37.2722C84.7248 37.2722 83.6285 36.7387 82.962 35.6718H82.9137V41.6115H80.3395V29.4537C80.3395 28.2482 80.3069 27.0109 80.2441 25.7419H82.508L82.6517 27.5291H82.7C83.5573 26.1825 84.8601 25.5104 86.6096 25.5104C87.9752 25.5104 89.1162 26.0357 90.0314 27.0873C90.943 28.1401 91.4006 29.5242 91.4006 31.2409ZM88.7781 31.3326C88.7781 30.2351 88.5233 29.3304 88.0138 28.6183C87.4572 27.8757 86.7122 27.5044 85.7741 27.5044C85.1378 27.5044 84.5618 27.7112 84.0451 28.1189C83.5283 28.5302 83.1914 29.0672 83.0333 29.7322C82.9548 30.0424 82.9137 30.2962 82.9137 30.496V32.376C82.9137 33.1961 83.1721 33.8882 83.6865 34.4534C84.2032 35.0174 84.8746 35.3005 85.7028 35.3005C86.6724 35.3005 87.427 34.9363 87.9667 34.2101C88.5076 33.4828 88.7781 32.524 88.7781 31.3326Z" fill="white"/>
<path d="M106.3 32.6321C106.3 33.9622 105.826 35.0444 104.873 35.8798C103.826 36.7928 102.369 37.2487 100.496 37.2487C98.7671 37.2487 97.381 36.9244 96.3318 36.2746L96.9282 34.1866C98.0584 34.8517 99.2984 35.1854 100.649 35.1854C101.619 35.1854 102.374 34.9715 102.916 34.5462C103.455 34.1208 103.725 33.5498 103.725 32.8377C103.725 32.2032 103.503 31.6686 103.057 31.235C102.614 30.8015 101.874 30.3984 100.84 30.026C98.027 29.0049 96.6216 27.5091 96.6216 25.5422C96.6216 24.2567 97.1142 23.2027 98.1006 22.3826C99.0835 21.5613 100.395 21.1512 102.034 21.1512C103.497 21.1512 104.711 21.3991 105.681 21.8938L105.037 23.9359C104.132 23.4565 103.108 23.2168 101.962 23.2168C101.056 23.2168 100.349 23.4342 99.8417 23.8666C99.4131 24.2532 99.1982 24.7244 99.1982 25.2825C99.1982 25.9005 99.4433 26.4117 99.9359 26.8135C100.365 27.1848 101.143 27.5867 102.273 28.0202C103.656 28.5619 104.671 29.1952 105.325 29.9214C105.975 30.6452 106.3 31.5511 106.3 32.6321Z" fill="white"/>
<path d="M114.811 27.6219H111.974V33.0962C111.974 34.4886 112.473 35.1842 113.476 35.1842C113.936 35.1842 114.317 35.1454 114.619 35.0679L114.69 36.9702C114.183 37.1547 113.515 37.2475 112.688 37.2475C111.672 37.2475 110.877 36.9455 110.304 36.3428C109.733 35.7388 109.445 34.726 109.445 33.303V27.6196H107.755V25.7396H109.445V23.6751L111.974 22.9325V25.7396H114.811V27.6219Z" fill="white"/>
<path d="M127.613 31.2867C127.613 33.0198 127.104 34.4428 126.087 35.5555C125.021 36.7011 123.606 37.2722 121.842 37.2722C120.142 37.2722 118.788 36.7234 117.779 35.626C116.77 34.5285 116.265 33.1432 116.265 31.4735C116.265 29.7263 116.784 28.2952 117.826 27.1824C118.866 26.0685 120.269 25.5116 122.033 25.5116C123.733 25.5116 125.101 26.0603 126.133 27.1589C127.121 28.2247 127.613 29.6006 127.613 31.2867ZM124.943 31.3678C124.943 30.3279 124.714 29.4361 124.252 28.6923C123.712 27.7923 122.941 27.3434 121.941 27.3434C120.906 27.3434 120.12 27.7934 119.58 28.6923C119.118 29.4373 118.89 30.3432 118.89 31.4148C118.89 32.4547 119.118 33.3465 119.58 34.0891C120.137 34.9891 120.915 35.438 121.918 35.438C122.901 35.438 123.672 34.9797 124.229 34.0656C124.703 33.3077 124.943 32.4065 124.943 31.3678Z" fill="white"/>
<path d="M135.981 27.945C135.726 27.8992 135.454 27.8757 135.169 27.8757C134.264 27.8757 133.563 28.2082 133.071 28.8745C132.642 29.462 132.427 30.2046 132.427 31.1011V37.0172H129.854L129.878 29.2928C129.878 27.9932 129.846 26.81 129.782 25.7431H132.024L132.118 27.9004H132.189C132.461 27.159 132.89 26.5621 133.476 26.1144C134.05 25.7114 134.669 25.5104 135.337 25.5104C135.575 25.5104 135.79 25.5269 135.981 25.5563V27.945Z" fill="white"/>
<path d="M147.493 30.8461C147.493 31.2949 147.463 31.6733 147.399 31.9823H139.676C139.706 33.0962 140.08 33.9481 140.797 34.5356C141.448 35.0608 142.289 35.324 143.323 35.324C144.466 35.324 145.509 35.1466 146.447 34.7906L146.851 36.5296C145.754 36.9949 144.46 37.2263 142.966 37.2263C141.17 37.2263 139.76 36.7117 138.733 35.6836C137.709 34.6554 137.196 33.2748 137.196 31.5429C137.196 29.8426 137.673 28.4268 138.628 27.2976C139.628 26.092 140.979 25.4893 142.679 25.4893C144.349 25.4893 145.613 26.092 146.472 27.2976C147.151 28.2552 147.493 29.4396 147.493 30.8461ZM145.038 30.1963C145.055 29.4537 144.887 28.8122 144.539 28.2705C144.093 27.5737 143.408 27.2259 142.487 27.2259C141.646 27.2259 140.961 27.5655 140.438 28.247C140.01 28.7887 139.755 29.4384 139.676 30.1951H145.038V30.1963Z" fill="white"/>
</svg>
