<svg width="163" height="47" viewBox="0 0 163 47" fill="none" xmlns="http://www.w3.org/2000/svg">
<path d="M156.964 0.941469C159.759 0.941469 162.034 3.15488 162.034 5.875V41.125C162.034 43.8451 159.759 46.0585 156.964 46.0585H6.03826C3.24311 46.0585 0.968656 43.8451 0.968656 41.125V5.875C0.968656 3.15488 3.24311 0.941469 6.03826 0.941469H156.964ZM156.964 1.90735e-06H6.03826C2.7194 1.90735e-06 0.0012207 2.64522 0.0012207 5.875V41.125C0.0012207 44.3548 2.7194 47 6.03826 47H156.964C160.283 47 163.001 44.3548 163.001 41.125V5.875C163.001 2.64522 160.283 1.90735e-06 156.964 1.90735e-06Z" fill="white"/>
<path d="M11.6949 8.85805C11.3403 9.21936 11.135 9.78189 11.135 10.5104V36.4955C11.135 37.224 11.3403 37.7865 11.6949 38.1479L11.7825 38.2272L26.7453 23.6719V23.3282L11.7825 8.77286L11.6949 8.85805Z" fill="white"/>
<path d="M33.5385 28.5261L28.5564 23.6718V23.3282L33.5445 18.4739L33.6562 18.5371L39.5634 21.808C41.2493 22.7363 41.2493 24.2638 39.5634 25.1979L33.6562 28.4629L33.5385 28.5261Z" fill="white"/>
<path d="M32.7507 29.3668L27.6509 24.4039L12.6006 39.0517C13.1605 39.6245 14.0736 39.6936 15.112 39.1207L32.7507 29.3668Z" fill="white"/>
<path d="M32.7507 17.6333L15.112 7.87932C14.0736 7.31239 13.1605 7.38141 12.6006 7.95423L27.6509 22.5962L32.7507 17.6333Z" fill="white"/>
<path d="M57.2533 12.0364C57.2533 13.0176 56.9515 13.8033 56.3568 14.3894C55.6732 15.0841 54.7827 15.4337 53.6915 15.4337C52.6486 15.4337 51.7581 15.0782 51.0276 14.3776C50.2957 13.6667 49.9304 12.7943 49.9304 11.75C49.9304 10.7057 50.2957 9.83331 51.0276 9.12831C51.7581 8.42184 52.6486 8.06641 53.6915 8.06641C54.2107 8.06641 54.7057 8.17069 55.1781 8.36456C55.649 8.55991 56.0324 8.82428 56.3101 9.15034L55.6792 9.77016C55.1947 9.2135 54.5352 8.93884 53.6915 8.93884C52.9308 8.93884 52.2713 9.19734 51.7113 9.71875C51.1574 10.2416 50.8797 10.9187 50.8797 11.75C50.8797 12.5813 51.1574 13.2643 51.7113 13.7872C52.2713 14.3027 52.9308 14.5671 53.6915 14.5671C54.4989 14.5671 55.1781 14.3027 55.7139 13.7813C56.0671 13.4362 56.2678 12.9603 56.3206 12.3522H53.6915V11.5033H57.199C57.2413 11.6869 57.2533 11.8646 57.2533 12.0364Z" fill="white" stroke="white" stroke-width="0.16" stroke-miterlimit="10"/>
<path d="M62.818 9.09306H59.5233V11.3256H62.4935V12.1745H59.5233V14.407H62.818V15.2721H58.5906V8.22797H62.818V9.09306Z" fill="white" stroke="white" stroke-width="0.16" stroke-miterlimit="10"/>
<path d="M66.7451 15.2721H65.8124V9.09306H63.7915V8.22797H68.7675V9.09306H66.7451V15.2721Z" fill="white" stroke="white" stroke-width="0.16" stroke-miterlimit="10"/>
<path d="M72.3687 15.2721V8.22797H73.2999V15.2721H72.3687Z" fill="white" stroke="white" stroke-width="0.16" stroke-miterlimit="10"/>
<path d="M77.4275 15.2721H76.5023V9.09306H74.4739V8.22797H79.4559V9.09306H77.4275V15.2721Z" fill="white" stroke="white" stroke-width="0.16" stroke-miterlimit="10"/>
<path d="M88.877 14.3659C88.1631 15.0782 87.2786 15.4337 86.2237 15.4337C85.1627 15.4337 84.2782 15.0782 83.5644 14.3659C82.852 13.655 82.4973 12.7826 82.4973 11.75C82.4973 10.7175 82.852 9.84506 83.5644 9.13419C84.2782 8.42184 85.1627 8.06641 86.2237 8.06641C87.2726 8.06641 88.157 8.42184 88.8709 9.14006C89.5893 9.85681 89.944 10.7234 89.944 11.75C89.944 12.7826 89.5893 13.655 88.877 14.3659ZM84.2541 13.7754C84.7914 14.3027 85.4449 14.5671 86.2237 14.5671C86.9964 14.5671 87.656 14.3027 88.1872 13.7754C88.723 13.2482 88.9947 12.5711 88.9947 11.75C88.9947 10.929 88.723 10.2519 88.1872 9.72463C87.656 9.19734 86.9964 8.93297 86.2237 8.93297C85.4449 8.93297 84.7914 9.19734 84.2541 9.72463C83.7183 10.2519 83.4466 10.929 83.4466 11.75C83.4466 12.5711 83.7183 13.2482 84.2541 13.7754Z" fill="white" stroke="white" stroke-width="0.16" stroke-miterlimit="10"/>
<path d="M91.2524 15.2721V8.22797H92.3844L95.904 13.7064H95.9447L95.904 12.3522V8.22797H96.8352V15.2721H95.8632L92.1776 9.5234H92.1369L92.1776 10.8835V15.2721H91.2524Z" fill="white" stroke="white" stroke-width="0.16" stroke-miterlimit="10"/>
<path d="M82.2679 25.5592C79.432 25.5592 77.1153 27.6595 77.1153 30.5574C77.1153 33.4317 79.432 35.554 82.2679 35.554C85.1098 35.554 87.4266 33.4317 87.4266 30.5574C87.4266 27.6595 85.1098 25.5592 82.2679 25.5592ZM82.2679 33.5859C80.7119 33.5859 79.3732 32.336 79.3732 30.5574C79.3732 28.7552 80.7119 27.5273 82.2679 27.5273C83.824 27.5273 85.1687 28.7552 85.1687 30.5574C85.1687 32.336 83.824 33.5859 82.2679 33.5859ZM71.0254 25.5592C68.1835 25.5592 65.8728 27.6595 65.8728 30.5574C65.8728 33.4317 68.1835 35.554 71.0254 35.554C73.8659 35.554 76.1781 33.4317 76.1781 30.5574C76.1781 27.6595 73.8659 25.5592 71.0254 25.5592ZM71.0254 33.5859C69.4679 33.5859 68.1247 32.336 68.1247 30.5574C68.1247 28.7552 69.4679 27.5273 71.0254 27.5273C72.5815 27.5273 73.9202 28.7552 73.9202 30.5574C73.9202 32.336 72.5815 33.5859 71.0254 33.5859ZM57.6474 27.0911V29.2149H62.8588C62.7064 30.4017 62.2989 31.2741 61.6741 31.8822C60.9134 32.6165 59.7286 33.4317 57.6474 33.4317C54.4402 33.4317 51.9288 30.9128 51.9288 27.7917C51.9288 24.6706 54.4402 22.1517 57.6474 22.1517C59.3815 22.1517 60.6433 22.8112 61.5745 23.666L63.1124 22.1693C61.8099 20.9591 60.0773 20.0294 57.6474 20.0294C53.2494 20.0294 49.5532 23.5118 49.5532 27.7917C49.5532 32.0716 53.2494 35.554 57.6474 35.554C60.0245 35.554 61.8099 34.7962 63.2135 33.3744C64.6518 31.9747 65.1001 30.0066 65.1001 28.4174C65.1001 27.9239 65.0578 27.47 64.9824 27.0911H57.6474ZM112.352 28.7376C111.928 27.6199 110.619 25.5592 107.954 25.5592C105.313 25.5592 103.114 27.5846 103.114 30.5574C103.114 33.3568 105.29 35.554 108.208 35.554C110.567 35.554 111.928 34.1543 112.488 33.3392L110.737 32.2038C110.153 33.0351 109.358 33.5859 108.208 33.5859C107.065 33.5859 106.245 33.0763 105.72 32.0716L112.589 29.306L112.352 28.7376ZM105.349 30.4017C105.29 28.4747 106.887 27.4877 108.031 27.4877C108.927 27.4877 109.688 27.9239 109.942 28.5481L105.349 30.4017ZM99.7662 35.25H102.024V20.5625H99.7662V35.25ZM96.0686 26.6725H95.9931C95.486 26.088 94.5186 25.5592 93.2931 25.5592C90.7213 25.5592 88.3698 27.7565 88.3698 30.5735C88.3698 33.3744 90.7213 35.554 93.2931 35.554C94.5186 35.554 95.486 35.0209 95.9931 34.4187H96.0686V35.1355C96.0686 37.0463 95.0196 38.073 93.3278 38.073C91.9483 38.073 91.0925 37.1036 90.7394 36.2884L88.7758 37.086C89.3418 38.4108 90.8405 40.0411 93.3278 40.0411C95.975 40.0411 98.2087 38.5253 98.2087 34.8373V25.8632H96.0686V26.6725ZM93.4862 33.5859C91.9302 33.5859 90.6277 32.3184 90.6277 30.5735C90.6277 28.8125 91.9302 27.5273 93.4862 27.5273C95.0196 27.5273 96.2286 28.8125 96.2286 30.5735C96.2286 32.3184 95.0196 33.5859 93.4862 33.5859ZM122.923 20.5625H117.523V35.25H119.774V29.6849H122.923C125.424 29.6849 127.876 27.9239 127.876 25.123C127.876 22.3236 125.418 20.5625 122.923 20.5625ZM122.982 27.6419H119.774V22.6056H122.982C124.663 22.6056 125.623 23.9641 125.623 25.123C125.623 26.2598 124.663 27.6419 122.982 27.6419ZM136.902 25.5313C135.275 25.5313 133.583 26.2304 132.887 27.78L134.885 28.5951C135.315 27.78 136.106 27.5156 136.942 27.5156C138.11 27.5156 139.295 28.1986 139.313 29.4044V29.5586C138.906 29.3295 138.034 28.9902 136.96 28.9902C134.808 28.9902 132.615 30.1432 132.615 32.2949C132.615 34.263 134.378 35.5305 136.36 35.5305C137.875 35.5305 138.711 34.8652 139.236 34.0912H139.313V35.2265H141.488V29.5924C141.488 26.9883 139.49 25.5313 136.902 25.5313ZM136.63 33.58C135.893 33.58 134.867 33.2246 134.867 32.336C134.867 31.1992 136.147 30.763 137.255 30.763C138.246 30.763 138.711 30.976 139.313 31.2565C139.137 32.6165 137.934 33.58 136.63 33.58ZM149.412 25.853L146.823 32.22H146.746L144.071 25.853H141.642L145.663 34.7506L143.369 39.7018H145.722L151.917 25.853H149.412ZM129.114 35.25H131.372V20.5625H129.114V35.25Z" fill="white"/>
</svg>
