<svg width="12" height="12" viewBox="0 0 12 12" fill="none" xmlns="http://www.w3.org/2000/svg">
<path fill-rule="evenodd" clip-rule="evenodd" d="M3.21198 10.9688L5.41071 10.0689C5.52765 10.0298 5.62946 10.0062 5.72809 9.99761C5.76398 9.99444 5.79938 9.99322 5.83503 9.9942C5.95197 9.99713 6.07013 10.022 6.21027 10.0689L8.40876 10.9688C8.48591 11.0074 8.54816 11.0311 8.607 11.0457C8.64289 11.0547 8.67756 11.0601 8.71344 11.0635L8.72858 11.0648L8.76813 11.0672C8.81037 11.0689 8.85602 11.0689 8.90851 11.0689C9.40827 10.9688 9.80793 10.5689 9.80793 9.9688L9.60822 7.5689C9.56525 7.48272 9.55915 7.37823 9.5821 7.27105C9.59186 7.22588 9.60675 7.17999 9.62629 7.13482C9.63849 7.10674 9.65265 7.07891 9.66828 7.05157C9.68634 7.02032 9.70636 6.9898 9.72834 6.9605C9.75275 6.92828 9.77936 6.89752 9.80793 6.86871L11.3072 5.0689C11.407 4.9688 11.5069 4.86871 11.5069 4.66876C11.7069 4.16876 11.3072 3.5689 10.8074 3.4688L8.40876 2.9688C8.38923 2.95904 8.36872 2.9483 8.34748 2.93658C8.32184 2.92242 8.29523 2.90704 8.26813 2.89068C8.21882 2.86089 8.16779 2.82745 8.11823 2.79131C7.98737 2.69586 7.86603 2.58233 7.80915 2.4688L6.60993 0.468805C6.60993 0.368707 6.40998 0.268854 6.31012 0.168756C5.81037 -0.131293 5.21076 -0.0311952 4.91095 0.468805L3.71174 2.4688C3.61164 2.76885 3.41193 2.86871 3.11213 2.9688L0.813542 3.4688C0.737614 3.4688 0.676091 3.48321 0.617985 3.50665C0.600163 3.51397 0.582585 3.52203 0.565007 3.53082C0.550602 3.5379 0.536198 3.54546 0.52155 3.55352L0.456608 3.59014L0.42194 3.61041L0.380925 3.63311L0.350651 3.64971L0.313786 3.66876C-0.0861163 3.9688 -0.0861163 4.66876 0.213688 5.0689L1.81281 6.86871C1.83649 6.91607 1.86017 6.96343 1.88263 7.01251L1.90119 7.05401L1.92048 7.10064C1.95588 7.18902 1.98493 7.28399 2.00055 7.39214C2.00837 7.44732 2.01276 7.50591 2.01276 7.5689L1.81281 9.9688C1.81281 10.0757 1.81281 10.1541 1.82819 10.2344C1.84137 10.3043 1.86628 10.3758 1.91266 10.4688C2.11261 10.9688 2.71222 11.1688 3.21198 10.9688Z" fill="url(#paint0_linear_70_12372)"/>
<defs>
<linearGradient id="paint0_linear_70_12372" x1="6.35772" y1="-1.7423" x2="6.95574" y2="17.8674" gradientUnits="userSpaceOnUse">
<stop stop-color="#00B3B7"/>
<stop offset="1" stop-color="#3EE3E7"/>
</linearGradient>
</defs>
</svg>
